<svg xmlns="http://www.w3.org/2000/svg" xmlns:xlink="http://www.w3.org/1999/xlink" viewBox="0 0 1000 1000"><defs><style>.cls-1{fill:#126193;}.cls-2{fill:url(#linear-gradient);}.cls-3{fill:#ffca3a;}.cls-4{fill:url(#linear-gradient-2);}.cls-5{fill:#6a4c93;}.cls-6{fill:url(#linear-gradient-3);}</style><linearGradient id="linear-gradient" x1="164.89" y1="779.23" x2="530.21" y2="779.23" gradientUnits="userSpaceOnUse"><stop offset="0.2" stop-color="#6a4c93"/><stop offset="1" stop-color="#1982c4"/></linearGradient><linearGradient id="linear-gradient-2" x1="820.05" y1="684.81" x2="820.05" y2="285" gradientUnits="userSpaceOnUse"><stop offset="0.2" stop-color="#126193"/><stop offset="1" stop-color="#8ac926"/></linearGradient><linearGradient id="linear-gradient-3" x1="150" y1="224.7" x2="515" y2="224.7" gradientUnits="userSpaceOnUse"><stop offset="0" stop-color="#ff595e"/><stop offset="0.8" stop-color="#ffca3a"/></linearGradient></defs><g id="Spieltage_Farbe" data-name="Spieltage Farbe"><path class="cls-1" d="M850,685a30,30,0,0,0-44.84-26.07l0-.1L485,843.65l30,52L832.74,712.16A30,30,0,0,0,850,685Z"/><path class="cls-2" d="M513,842.46,194.89,658.83l-30,52L485,895.61l.06-.1a30,30,0,1,0,27.89-53Z"/><path class="cls-3" d="M835.11,289.21,515,104.39l-.06.1a30,30,0,1,0-27.89,53L805.11,341.17Z"/><path class="cls-4" d="M850,315.19V315a30,30,0,0,0-60,0c0,.82,0,1.64.11,2.44V684.81h60V315.19Z"/><path class="cls-5" d="M209.89,682.56V315.19h-60V684.81H150V685a30,30,0,0,0,60,0C210,684.18,210,683.36,209.89,682.56Z"/><path class="cls-6" d="M515,156.35l-30-52L167.26,287.84a30,30,0,1,0,27.58,53.23l0,.1Z"/></g></svg>